<svg xmlns="http://www.w3.org/2000/svg" viewBox="0 0 400 100">
  <!-- Shield icon -->
  <path d="M50 5 L90 20 L90 55 C90 75 70 92 50 97 C30 92 10 75 10 55 L10 20 Z" fill="#002244"/>
  <path d="M50 10 L85 23 L85 55 C85 72 67 87 50 92 C33 87 15 72 15 55 L15 23 Z" fill="#FB4F14"/>
  <!-- Lock/keyhole -->
  <rect x="37" y="45" width="26" height="22" rx="3" fill="#002244"/>
  <path d="M42 45 L42 37 C42 31 46 27 50 27 C54 27 58 31 58 37 L58 45" fill="none" stroke="#002244" stroke-width="5" stroke-linecap="round"/>
  <circle cx="50" cy="54" r="4" fill="#FB4F14"/>
  <rect x="48.5" y="54" width="3" height="7" rx="1" fill="#FB4F14"/>
  <!-- Text -->
  <text x="110" y="52" font-family="Arial, Helvetica, sans-serif" font-weight="900" font-size="38" fill="#002244" letter-spacing="3">SECURED</text>
  <text x="110" y="82" font-family="Arial, Helvetica, sans-serif" font-weight="700" font-size="22" fill="#FB4F14" letter-spacing="6">TAMPA</text>
</svg>